<svg width="20" height="14" viewBox="0 0 20 14" xmlns="http://www.w3.org/2000/svg">
<path fill-rule="evenodd" clip-rule="evenodd" d="M11.436 3.53464C10.9809 3.34618 10.4932 3.24923 10.0006 3.24934C9.25903 3.24938 8.53394 3.46928 7.91733 3.88126C7.30066 4.29327 6.82002 4.87889 6.53616 5.56405C6.2523 6.24922 6.17798 7.00316 6.32259 7.73057C6.46721 8.45797 6.82426 9.12615 7.34861 9.65064C7.87295 10.1751 8.54105 10.5324 9.26841 10.6772C9.99577 10.822 10.7497 10.7479 11.435 10.4642C12.1202 10.1805 12.706 9.70001 13.1181 9.08346C13.5303 8.46695 13.7504 7.74192 13.7506 7.00034C13.7509 6.5078 13.654 6.02004 13.4657 5.56492C13.2773 5.10976 13.0011 4.69617 12.6529 4.3478C12.3046 3.99944 11.8911 3.72312 11.436 3.53464ZM10.0008 4.49934C10.3291 4.49926 10.6543 4.56388 10.9577 4.68952C11.2611 4.81516 11.5367 4.99935 11.7689 5.23157C12.001 5.46379 12.1851 5.73948 12.3107 6.04289C12.4363 6.3463 12.5008 6.67165 12.5006 7.00001C12.5005 7.49444 12.3537 7.97772 12.079 8.38875C11.8042 8.79979 11.4137 9.12012 10.9569 9.30923C10.5 9.49835 9.99739 9.54776 9.51248 9.45123C9.02757 9.35469 8.58217 9.11653 8.23261 8.76688C7.88304 8.41722 7.64501 7.97176 7.5486 7.48682C7.45219 7.00189 7.50174 6.49926 7.69098 6.04248C7.88022 5.58571 8.20065 5.1953 8.61176 4.92062C9.02286 4.64595 9.50635 4.49934 10.0008 4.49934Z"/>
<path fill-rule="evenodd" clip-rule="evenodd" d="M19.4829 5.65048C17.2498 3.19518 13.6209 0.69482 10.0006 0.750927C6.38028 0.69482 2.75136 3.19516 0.520488 5.65074L0.518703 5.65271C0.186043 6.02203 0.00195312 6.50146 0.00195312 6.99851C0.00195312 7.49556 0.186043 7.97499 0.518703 8.3443L0.520359 8.34614C2.70112 10.748 6.32033 13.3055 10.0006 13.2486C13.6808 13.3055 17.3008 10.7481 19.4832 8.34631L19.485 8.3443C19.8176 7.97499 20.0017 7.49556 20.0017 6.99851C20.0017 6.50146 19.8176 6.02203 19.485 5.65271L19.4829 5.65048ZM1.25195 6.99851C1.25195 6.81083 1.32132 6.62978 1.44671 6.49016C3.58203 4.14021 6.89601 1.94873 9.99005 2.00092C9.99707 2.00104 10.0041 2.00104 10.0111 2.00092C13.1051 1.94873 16.4191 4.14015 18.5571 6.49035C18.6824 6.62994 18.7517 6.81091 18.7517 6.99851C18.7517 7.18611 18.6824 7.36708 18.5571 7.50668C16.4648 9.80896 13.1602 12.0516 10.0111 11.9986L9.99698 11.9985L9.99007 11.9986C6.84109 12.0516 3.53732 9.80904 1.44677 7.50693C1.32135 7.3673 1.25195 7.18622 1.25195 6.99851Z" />
</svg>
